# xmcd
#
# Track frame offsets: 
#        150
#        13058
#        28209
#        49811
#        67575
#        84760
#        106330
#        138613
#        155933
#        185445
#        213136
#        228382
#        239989
#        255350
#        266864
#
# Disc length: 4078 seconds
#
# Revision: 0
# Processed by: cddbd v1.5PL3 Copyright (c) Steve Scherf et al.
# Submitted via: ExactAudioCopy v0.95a4
#
DISCID=d10fec0f
DTITLE=Robin Sylor - A Walk On The Wild Side
DYEAR=1999
DGENRE=Blues
TTITLE0=Bust Out
TTITLE1=Louisiana Lava Man
TTITLE2=Dynomite Nitro
TTITLE3=Bertha Lu
TTITLE4=Scratchy
TTITLE5=Wild Cherry
TTITLE6=Delivery Boy
TTITLE7=Dux
TTITLE8=Taken For a Ride
TTITLE9=Double Dip
TTITLE10=Queen Of The Hop
TTITLE11=Steel Trap
TTITLE12=Wild Angels
TTITLE13=Made Up My Mind
TTITLE14=Flashback
EXTD=
EXTT0=
EXTT1=
EXTT2=
EXTT3=
EXTT4=
EXTT5=
EXTT6=
EXTT7=
EXTT8=
EXTT9=
EXTT10=
EXTT11=
EXTT12=
EXTT13=
EXTT14=
PLAYORDER=
